<?xml version="1.0" encoding="UTF-8" standalone="no"?>
<!-- Created with Inkscape (http://www.inkscape.org/) -->

<svg
   xmlns:dc="http://purl.org/dc/elements/1.1/"
   xmlns:cc="http://creativecommons.org/ns#"
   xmlns:rdf="http://www.w3.org/1999/02/22-rdf-syntax-ns#"
   xmlns:svg="http://www.w3.org/2000/svg"
   xmlns="http://www.w3.org/2000/svg"
   xmlns:sodipodi="http://sodipodi.sourceforge.net/DTD/sodipodi-0.dtd"
   xmlns:inkscape="http://www.inkscape.org/namespaces/inkscape"
   width="650"
   height="350"
   id="svg2"
   version="1.1"
   inkscape:version="0.91 r13725"
   sodipodi:docname="default_hash_interval.svg">
  <defs
     id="defs4">
    <marker
       inkscape:stockid="Arrow1Mstart"
       orient="auto"
       refY="0"
       refX="0"
       id="Arrow1Mstart"
       style="overflow:visible"
       inkscape:isstock="true">
      <path
         id="path4841"
         d="M 0,0 5,-5 -12.5,0 5,5 0,0 Z"
         style="fill:#000000;fill-opacity:1;fill-rule:evenodd;stroke:#000000;stroke-width:1pt;stroke-opacity:1"
         transform="matrix(0.4,0,0,0.4,4,0)"
         inkscape:connector-curvature="0" />
    </marker>
    <clipPath
       id="clipPath4612"
       clipPathUnits="userSpaceOnUse">
      <path
         id="path4614"
         d="M 7.09e-7,1.8311e-4 960,1.8311e-4 960,540.00018 7.09e-7,540.00018 l 0,-539.99999689 z"
         inkscape:connector-curvature="0"
         style="clip-rule:evenodd" />
    </clipPath>
    <clipPath
       id="clipPath4602"
       clipPathUnits="userSpaceOnUse">
      <path
         id="path4604"
         d="M -6.3546e-5,540 960,540 960,1.2207e-4 -6.6323e-5,6.1035e-5"
         inkscape:connector-curvature="0"
         style="clip-rule:evenodd" />
    </clipPath>
    <clipPath
       id="clipPath4592"
       clipPathUnits="userSpaceOnUse">
      <path
         id="path4594"
         d="M -6.3546e-5,540 960,540 960,1.2207e-4 -6.6323e-5,6.1035e-5"
         inkscape:connector-curvature="0"
         style="clip-rule:evenodd" />
    </clipPath>
    <clipPath
       id="clipPath4582"
       clipPathUnits="userSpaceOnUse">
      <path
         id="path4584"
         d="M -5.5651e-5,540 960,540 960,1.8311e-4 -2.7612e-5,1.2207e-4"
         inkscape:connector-curvature="0"
         style="clip-rule:evenodd" />
    </clipPath>
    <clipPath
       id="clipPath4572"
       clipPathUnits="userSpaceOnUse">
      <path
         id="path4574"
         d="M -5.5651e-5,540 960,540 960,1.8311e-4 -2.7612e-5,1.2207e-4"
         inkscape:connector-curvature="0"
         style="clip-rule:evenodd" />
    </clipPath>
    <clipPath
       id="clipPath4562"
       clipPathUnits="userSpaceOnUse">
      <path
         id="path4564"
         d="M -1.0563e-4,540 960,540 960,0 -8.0785e-5,6.1035e-5"
         inkscape:connector-curvature="0"
         style="clip-rule:evenodd" />
    </clipPath>
    <clipPath
       id="clipPath4552"
       clipPathUnits="userSpaceOnUse">
      <path
         id="path4554"
         d="M -1.0563e-4,540 960,540 960,0 -8.0785e-5,6.1035e-5"
         inkscape:connector-curvature="0"
         style="clip-rule:evenodd" />
    </clipPath>
    <clipPath
       id="clipPath4542"
       clipPathUnits="userSpaceOnUse">
      <path
         id="path4544"
         d="M -5.9576e-5,540 960,540 960,0 -1.0386e-4,-6.1035e-5"
         inkscape:connector-curvature="0"
         style="clip-rule:evenodd" />
    </clipPath>
    <clipPath
       id="clipPath4532"
       clipPathUnits="userSpaceOnUse">
      <path
         id="path4534"
         d="M -5.9576e-5,540 960,540 960,0 -1.0386e-4,-6.1035e-5"
         inkscape:connector-curvature="0"
         style="clip-rule:evenodd" />
    </clipPath>
    <clipPath
       id="clipPath4518"
       clipPathUnits="userSpaceOnUse">
      <path
         id="path4520"
         d="M -4.9367e-5,540 960,540 960,1.8311e-4 -5.9369e-5,1.2207e-4"
         inkscape:connector-curvature="0"
         style="clip-rule:evenodd" />
    </clipPath>
    <clipPath
       id="clipPath4508"
       clipPathUnits="userSpaceOnUse">
      <path
         id="path4510"
         d="M -4.9367e-5,540 960,540 960,1.8311e-4 -5.9369e-5,1.2207e-4"
         inkscape:connector-curvature="0"
         style="clip-rule:evenodd" />
    </clipPath>
    <clipPath
       id="clipPath4498"
       clipPathUnits="userSpaceOnUse">
      <path
         id="path4500"
         d="M -6.0031e-5,540 960,540 960,-1.2207e-4 l -960.000026827,0"
         inkscape:connector-curvature="0"
         style="clip-rule:evenodd" />
    </clipPath>
    <clipPath
       id="clipPath4488"
       clipPathUnits="userSpaceOnUse">
      <path
         id="path4490"
         d="M -6.0031e-5,540 960,540 960,-1.2207e-4 l -960.000026827,0"
         inkscape:connector-curvature="0"
         style="clip-rule:evenodd" />
    </clipPath>
    <clipPath
       id="clipPath4478"
       clipPathUnits="userSpaceOnUse">
      <path
         id="path4480"
         d="M 1.376e-5,540 960,540 960,1.2207e-4 l -959.99998624,0"
         inkscape:connector-curvature="0"
         style="clip-rule:evenodd" />
    </clipPath>
    <clipPath
       id="clipPath4468"
       clipPathUnits="userSpaceOnUse">
      <path
         id="path4470"
         d="M 1.376e-5,540 960,540 960,1.2207e-4 l -959.99998624,0"
         inkscape:connector-curvature="0"
         style="clip-rule:evenodd" />
    </clipPath>
    <clipPath
       id="clipPath4458"
       clipPathUnits="userSpaceOnUse">
      <path
         id="path4460"
         d="M 3.8212e-5,540 960,540 960,1.2207e-4 l -959.999961788,0"
         inkscape:connector-curvature="0"
         style="clip-rule:evenodd" />
    </clipPath>
    <clipPath
       id="clipPath4448"
       clipPathUnits="userSpaceOnUse">
      <path
         id="path4450"
         d="M 3.8212e-5,540 960,540 960,1.2207e-4 l -959.999961788,0"
         inkscape:connector-curvature="0"
         style="clip-rule:evenodd" />
    </clipPath>
    <clipPath
       id="clipPath4432"
       clipPathUnits="userSpaceOnUse">
      <path
         id="path4434"
         d="M 1.4305e-5,0 960.00001,0 l 0,540 -959.999995695,0 0,-540 z"
         inkscape:connector-curvature="0"
         style="clip-rule:evenodd" />
    </clipPath>
    <clipPath
       id="clipPath4420"
       clipPathUnits="userSpaceOnUse">
      <path
         id="path4422"
         d="M 1.4305e-5,0 960.00001,0 l 0,540 -959.999995695,0 0,-540 z"
         inkscape:connector-curvature="0"
         style="clip-rule:evenodd" />
    </clipPath>
    <clipPath
       id="clipPath4394"
       clipPathUnits="userSpaceOnUse">
      <path
         id="path4396"
         d="M 1.4305e-5,0 960.00001,0 l 0,540 -959.999995695,0 0,-540 z"
         inkscape:connector-curvature="0"
         style="clip-rule:evenodd" />
    </clipPath>
    <clipPath
       id="clipPath4382"
       clipPathUnits="userSpaceOnUse">
      <path
         id="path4384"
         d="M 1.4305e-5,0 960.00001,0 l 0,540 -959.999995695,0 0,-540 z"
         inkscape:connector-curvature="0"
         style="clip-rule:evenodd" />
    </clipPath>
    <clipPath
       id="clipPath4362"
       clipPathUnits="userSpaceOnUse">
      <path
         id="path4364"
         d="M 1.4305e-5,0 960.00001,0 l 0,540 -959.999995695,0 0,-540 z"
         inkscape:connector-curvature="0"
         style="clip-rule:evenodd" />
    </clipPath>
    <clipPath
       id="clipPath4346"
       clipPathUnits="userSpaceOnUse">
      <path
         id="path4348"
         d="M 1.4305e-5,0 960.00001,0 l 0,540 -959.999995695,0 0,-540 z"
         inkscape:connector-curvature="0"
         style="clip-rule:evenodd" />
    </clipPath>
    <clipPath
       id="clipPath4334"
       clipPathUnits="userSpaceOnUse">
      <path
         id="path4336"
         d="M 1.4305e-5,0 960.00001,0 l 0,540 -959.999995695,0 0,-540 z"
         inkscape:connector-curvature="0"
         style="clip-rule:evenodd" />
    </clipPath>
    <clipPath
       id="clipPath4316"
       clipPathUnits="userSpaceOnUse">
      <path
         id="path4318"
         d="M 1.4305e-5,0 960.00001,0 l 0,540 -959.999995695,0 0,-540 z"
         inkscape:connector-curvature="0"
         style="clip-rule:evenodd" />
    </clipPath>
    <clipPath
       id="clipPath4304"
       clipPathUnits="userSpaceOnUse">
      <path
         id="path4306"
         d="M 1.4305e-5,0 960.00001,0 l 0,540 -959.999995695,0 0,-540 z"
         inkscape:connector-curvature="0"
         style="clip-rule:evenodd" />
    </clipPath>
    <clipPath
       id="clipPath4292"
       clipPathUnits="userSpaceOnUse">
      <path
         id="path4294"
         d="M 1.4305e-5,0 960.00001,0 l 0,540 -959.999995695,0 0,-540 z"
         inkscape:connector-curvature="0"
         style="clip-rule:evenodd" />
    </clipPath>
    <clipPath
       id="clipPath4274"
       clipPathUnits="userSpaceOnUse">
      <path
         id="path4276"
         d="M 1.4305e-5,0 960.00001,0 l 0,540 -959.999995695,0 0,-540 z"
         inkscape:connector-curvature="0"
         style="clip-rule:evenodd" />
    </clipPath>
    <clipPath
       id="clipPath4262"
       clipPathUnits="userSpaceOnUse">
      <path
         id="path4264"
         d="M 1.4305e-5,0 960.00001,0 l 0,540 -959.999995695,0 0,-540 z"
         inkscape:connector-curvature="0"
         style="clip-rule:evenodd" />
    </clipPath>
    <clipPath
       id="clipPath4244"
       clipPathUnits="userSpaceOnUse">
      <path
         id="path4246"
         d="M 1.4305e-5,0 960.00001,0 l 0,540 -959.999995695,0 0,-540 z"
         inkscape:connector-curvature="0"
         style="clip-rule:evenodd" />
    </clipPath>
    <clipPath
       id="clipPath4232"
       clipPathUnits="userSpaceOnUse">
      <path
         id="path4234"
         d="M 1.4305e-5,0 960.00001,0 l 0,540 -959.999995695,0 0,-540 z"
         inkscape:connector-curvature="0"
         style="clip-rule:evenodd" />
    </clipPath>
    <clipPath
       id="clipPath4220"
       clipPathUnits="userSpaceOnUse">
      <path
         id="path4222"
         d="M 1.4305e-5,0 960.00001,0 l 0,540 -959.999995695,0 0,-540 z"
         inkscape:connector-curvature="0"
         style="clip-rule:evenodd" />
    </clipPath>
    <clipPath
       id="clipPath4204"
       clipPathUnits="userSpaceOnUse">
      <path
         id="path4206"
         d="M 1.4305e-5,0 960.00001,0 l 0,540 -959.999995695,0 0,-540 z"
         inkscape:connector-curvature="0"
         style="clip-rule:evenodd" />
    </clipPath>
    <clipPath
       id="clipPath4192"
       clipPathUnits="userSpaceOnUse">
      <path
         id="path4194"
         d="M 1.4305e-5,0 960.00001,0 l 0,540 -959.999995695,0 0,-540 z"
         inkscape:connector-curvature="0"
         style="clip-rule:evenodd" />
    </clipPath>
    <clipPath
       id="clipPath4180"
       clipPathUnits="userSpaceOnUse">
      <path
         id="path4182"
         d="M 1.4305e-5,0 960.00001,0 l 0,540 -959.999995695,0 0,-540 z"
         inkscape:connector-curvature="0"
         style="clip-rule:evenodd" />
    </clipPath>
    <clipPath
       id="clipPath4158"
       clipPathUnits="userSpaceOnUse">
      <path
         id="path4160"
         d="M 1.4305e-5,0 960.00001,0 l 0,540 -959.999995695,0 0,-540 z"
         inkscape:connector-curvature="0"
         style="clip-rule:evenodd" />
    </clipPath>
    <clipPath
       id="clipPath4146"
       clipPathUnits="userSpaceOnUse">
      <path
         id="path4148"
         d="M 1.4305e-5,0 960.00001,0 l 0,540 -959.999995695,0 0,-540 z"
         inkscape:connector-curvature="0"
         style="clip-rule:evenodd" />
    </clipPath>
    <clipPath
       id="clipPath4134"
       clipPathUnits="userSpaceOnUse">
      <path
         id="path4136"
         d="M 1.4305e-5,0 960.00001,0 l 0,540 -959.999995695,0 0,-540 z"
         inkscape:connector-curvature="0"
         style="clip-rule:evenodd" />
    </clipPath>
    <clipPath
       id="clipPath4116"
       clipPathUnits="userSpaceOnUse">
      <path
         id="path4118"
         d="M 1.4305e-5,0 960.00001,0 l 0,540 -959.999995695,0 0,-540 z"
         inkscape:connector-curvature="0"
         style="clip-rule:evenodd" />
    </clipPath>
    <clipPath
       id="clipPath4104"
       clipPathUnits="userSpaceOnUse">
      <path
         id="path4106"
         d="M 1.4305e-5,0 960.00001,0 l 0,540 -959.999995695,0 0,-540 z"
         inkscape:connector-curvature="0"
         style="clip-rule:evenodd" />
    </clipPath>
    <clipPath
       id="clipPath4088"
       clipPathUnits="userSpaceOnUse">
      <path
         id="path4090"
         d="M 1.4305e-5,0 960.00001,0 l 0,540 -959.999995695,0 0,-540 z"
         inkscape:connector-curvature="0"
         style="clip-rule:evenodd" />
    </clipPath>
    <clipPath
       id="clipPath4076"
       clipPathUnits="userSpaceOnUse">
      <path
         id="path4078"
         d="M 1.4305e-5,0 960.00001,0 l 0,540 -959.999995695,0 0,-540 z"
         inkscape:connector-curvature="0"
         style="clip-rule:evenodd" />
    </clipPath>
    <clipPath
       id="clipPath4060"
       clipPathUnits="userSpaceOnUse">
      <path
         id="path4062"
         d="M 1.4305e-5,0 960.00001,0 l 0,540 -959.999995695,0 0,-540 z"
         inkscape:connector-curvature="0"
         style="clip-rule:evenodd" />
    </clipPath>
    <clipPath
       id="clipPath4048"
       clipPathUnits="userSpaceOnUse">
      <path
         id="path4050"
         d="M 1.4305e-5,0 960.00001,0 l 0,540 -959.999995695,0 0,-540 z"
         inkscape:connector-curvature="0"
         style="clip-rule:evenodd" />
    </clipPath>
    <clipPath
       id="clipPath4032"
       clipPathUnits="userSpaceOnUse">
      <path
         id="path4034"
         d="M 1.4305e-5,0 960.00001,0 l 0,540 -959.999995695,0 0,-540 z"
         inkscape:connector-curvature="0"
         style="clip-rule:evenodd" />
    </clipPath>
    <clipPath
       id="clipPath4020"
       clipPathUnits="userSpaceOnUse">
      <path
         id="path4022"
         d="M 1.4305e-5,0 960.00001,0 l 0,540 -959.999995695,0 0,-540 z"
         inkscape:connector-curvature="0"
         style="clip-rule:evenodd" />
    </clipPath>
    <clipPath
       id="clipPath4000"
       clipPathUnits="userSpaceOnUse">
      <path
         id="path4002"
         d="m 0,1.2207e-4 960,0 0,539.99999793 -960,0 L 0,1.2207e-4 Z"
         inkscape:connector-curvature="0"
         style="clip-rule:evenodd" />
    </clipPath>
    <clipPath
       id="clipPath4262-3"
       clipPathUnits="userSpaceOnUse">
      <path
         id="path4264-2"
         d="M 1.4305e-5,0 960.00001,0 l 0,540 -959.999995695,0 0,-540 z"
         inkscape:connector-curvature="0"
         style="clip-rule:evenodd" />
    </clipPath>
    <clipPath
       id="clipPath4274-2"
       clipPathUnits="userSpaceOnUse">
      <path
         id="path4276-2"
         d="M 1.4305e-5,0 960.00001,0 l 0,540 -959.999995695,0 0,-540 z"
         inkscape:connector-curvature="0"
         style="clip-rule:evenodd" />
    </clipPath>
    <clipPath
       id="clipPath4362-4"
       clipPathUnits="userSpaceOnUse">
      <path
         id="path4364-5"
         d="M 1.4305e-5,0 960.00001,0 l 0,540 -959.999995695,0 0,-540 z"
         inkscape:connector-curvature="0"
         style="clip-rule:evenodd" />
    </clipPath>
    <clipPath
       id="clipPath4076-5"
       clipPathUnits="userSpaceOnUse">
      <path
         id="path4078-9"
         d="M 1.4305e-5,0 960.00001,0 l 0,540 -959.999995695,0 0,-540 z"
         inkscape:connector-curvature="0"
         style="clip-rule:evenodd" />
    </clipPath>
    <clipPath
       id="clipPath4088-4"
       clipPathUnits="userSpaceOnUse">
      <path
         id="path4090-2"
         d="M 1.4305e-5,0 960.00001,0 l 0,540 -959.999995695,0 0,-540 z"
         inkscape:connector-curvature="0"
         style="clip-rule:evenodd" />
    </clipPath>
    <clipPath
       id="clipPath4362-4-0"
       clipPathUnits="userSpaceOnUse">
      <path
         id="path4364-5-3"
         d="M 1.4305e-5,0 960.00001,0 l 0,540 -959.999995695,0 0,-540 z"
         inkscape:connector-curvature="0"
         style="clip-rule:evenodd" />
    </clipPath>
    <clipPath
       id="clipPath4076-5-3"
       clipPathUnits="userSpaceOnUse">
      <path
         id="path4078-9-4"
         d="M 1.4305e-5,0 960.00001,0 l 0,540 -959.999995695,0 0,-540 z"
         inkscape:connector-curvature="0"
         style="clip-rule:evenodd" />
    </clipPath>
    <clipPath
       id="clipPath4076-5-4"
       clipPathUnits="userSpaceOnUse">
      <path
         id="path4078-9-43"
         d="M 1.4305e-5,0 960.00001,0 l 0,540 -959.999995695,0 0,-540 z"
         inkscape:connector-curvature="0"
         style="clip-rule:evenodd" />
    </clipPath>
    <clipPath
       id="clipPath4076-5-8"
       clipPathUnits="userSpaceOnUse">
      <path
         id="path4078-9-6"
         d="M 1.4305e-5,0 960.00001,0 l 0,540 -959.999995695,0 0,-540 z"
         inkscape:connector-curvature="0"
         style="clip-rule:evenodd" />
    </clipPath>
    <clipPath
       id="clipPath4304-0"
       clipPathUnits="userSpaceOnUse">
      <path
         id="path4306-7"
         d="M 1.4305e-5,0 960.00001,0 l 0,540 -959.999995695,0 0,-540 z"
         inkscape:connector-curvature="0"
         style="clip-rule:evenodd" />
    </clipPath>
    <clipPath
       id="clipPath4292-6"
       clipPathUnits="userSpaceOnUse">
      <path
         id="path4294-8"
         d="M 1.4305e-5,0 960.00001,0 l 0,540 -959.999995695,0 0,-540 z"
         inkscape:connector-curvature="0"
         style="clip-rule:evenodd" />
    </clipPath>
    <clipPath
       id="clipPath4602-9"
       clipPathUnits="userSpaceOnUse">
      <path
         id="path4604-0"
         d="M -6.3546e-5,540 960,540 960,1.2207e-4 -6.6323e-5,6.1035e-5"
         inkscape:connector-curvature="0"
         style="clip-rule:evenodd" />
    </clipPath>
    <clipPath
       id="clipPath4592-5"
       clipPathUnits="userSpaceOnUse">
      <path
         id="path4594-3"
         d="M -6.3546e-5,540 960,540 960,1.2207e-4 -6.6323e-5,6.1035e-5"
         inkscape:connector-curvature="0"
         style="clip-rule:evenodd" />
    </clipPath>
    <clipPath
       id="clipPath4292-6-4"
       clipPathUnits="userSpaceOnUse">
      <path
         id="path4294-8-1"
         d="M 1.4305e-5,0 960.00001,0 l 0,540 -959.999995695,0 0,-540 z"
         inkscape:connector-curvature="0"
         style="clip-rule:evenodd" />
    </clipPath>
    <clipPath
       id="clipPath4304-0-9"
       clipPathUnits="userSpaceOnUse">
      <path
         id="path4306-7-2"
         d="M 1.4305e-5,0 960.00001,0 l 0,540 -959.999995695,0 0,-540 z"
         inkscape:connector-curvature="0"
         style="clip-rule:evenodd" />
    </clipPath>
    <clipPath
       id="clipPath4292-6-8"
       clipPathUnits="userSpaceOnUse">
      <path
         id="path4294-8-9"
         d="M 1.4305e-5,0 960.00001,0 l 0,540 -959.999995695,0 0,-540 z"
         inkscape:connector-curvature="0"
         style="clip-rule:evenodd" />
    </clipPath>
    <clipPath
       id="clipPath4304-0-5"
       clipPathUnits="userSpaceOnUse">
      <path
         id="path4306-7-6"
         d="M 1.4305e-5,0 960.00001,0 l 0,540 -959.999995695,0 0,-540 z"
         inkscape:connector-curvature="0"
         style="clip-rule:evenodd" />
    </clipPath>
    <clipPath
       id="clipPath4508-7"
       clipPathUnits="userSpaceOnUse">
      <path
         id="path4510-8"
         d="M -4.9367e-5,540 960,540 960,1.8311e-4 -5.9369e-5,1.2207e-4"
         inkscape:connector-curvature="0"
         style="clip-rule:evenodd" />
    </clipPath>
    <clipPath
       id="clipPath4518-4"
       clipPathUnits="userSpaceOnUse">
      <path
         id="path4520-9"
         d="M -4.9367e-5,540 960,540 960,1.8311e-4 -5.9369e-5,1.2207e-4"
         inkscape:connector-curvature="0"
         style="clip-rule:evenodd" />
    </clipPath>
    <clipPath
       id="clipPath4292-6-8-3"
       clipPathUnits="userSpaceOnUse">
      <path
         id="path4294-8-9-0"
         d="M 1.4305e-5,0 960.00001,0 l 0,540 -959.999995695,0 0,-540 z"
         inkscape:connector-curvature="0"
         style="clip-rule:evenodd" />
    </clipPath>
    <clipPath
       id="clipPath4292-6-8-6"
       clipPathUnits="userSpaceOnUse">
      <path
         id="path4294-8-9-3"
         d="M 1.4305e-5,0 960.00001,0 l 0,540 -959.999995695,0 0,-540 z"
         inkscape:connector-curvature="0"
         style="clip-rule:evenodd" />
    </clipPath>
    <clipPath
       id="clipPath4048-6"
       clipPathUnits="userSpaceOnUse">
      <path
         id="path4050-0"
         d="M 1.4305e-5,0 960.00001,0 l 0,540 -959.999995695,0 0,-540 z"
         inkscape:connector-curvature="0"
         style="clip-rule:evenodd" />
    </clipPath>
    <clipPath
       id="clipPath4060-0"
       clipPathUnits="userSpaceOnUse">
      <path
         id="path4062-6"
         d="M 1.4305e-5,0 960.00001,0 l 0,540 -959.999995695,0 0,-540 z"
         inkscape:connector-curvature="0"
         style="clip-rule:evenodd" />
    </clipPath>
    <marker
       inkscape:stockid="Arrow1Mstart"
       orient="auto"
       refY="0"
       refX="0"
       id="Arrow1Mstart-9"
       style="overflow:visible"
       inkscape:isstock="true">
      <path
         inkscape:connector-curvature="0"
         id="path4841-5"
         d="M 0,0 5,-5 -12.5,0 5,5 0,0 Z"
         style="fill:#000000;fill-opacity:1;fill-rule:evenodd;stroke:#000000;stroke-width:1pt;stroke-opacity:1"
         transform="matrix(0.4,0,0,0.4,4,0)" />
    </marker>
    <marker
       inkscape:stockid="Arrow1Mstart"
       orient="auto"
       refY="0"
       refX="0"
       id="Arrow1Mstart-8"
       style="overflow:visible"
       inkscape:isstock="true">
      <path
         inkscape:connector-curvature="0"
         id="path4841-6"
         d="M 0,0 5,-5 -12.5,0 5,5 0,0 Z"
         style="fill:#000000;fill-opacity:1;fill-rule:evenodd;stroke:#000000;stroke-width:1pt;stroke-opacity:1"
         transform="matrix(0.4,0,0,0.4,4,0)" />
    </marker>
    <marker
       inkscape:stockid="Arrow1Mstart"
       orient="auto"
       refY="0"
       refX="0"
       id="Arrow1Mstart-2"
       style="overflow:visible"
       inkscape:isstock="true">
      <path
         inkscape:connector-curvature="0"
         id="path4841-4"
         d="M 0,0 5,-5 -12.5,0 5,5 0,0 Z"
         style="fill:#000000;fill-opacity:1;fill-rule:evenodd;stroke:#000000;stroke-width:1pt;stroke-opacity:1"
         transform="matrix(0.4,0,0,0.4,4,0)" />
    </marker>
    <clipPath
       id="clipPath4508-6"
       clipPathUnits="userSpaceOnUse">
      <path
         style="clip-rule:evenodd"
         id="path4510-5"
         d="M -4.9367e-5,540 960,540 960,1.8311e-4 -5.9369e-5,1.2207e-4"
         inkscape:connector-curvature="0" />
    </clipPath>
    <clipPath
       id="clipPath4518-41"
       clipPathUnits="userSpaceOnUse">
      <path
         style="clip-rule:evenodd"
         id="path4520-94"
         d="M -4.9367e-5,540 960,540 960,1.8311e-4 -5.9369e-5,1.2207e-4"
         inkscape:connector-curvature="0" />
    </clipPath>
    <marker
       inkscape:stockid="Arrow1Mstart"
       orient="auto"
       refY="0"
       refX="0"
       id="Arrow1Mstart-93"
       style="overflow:visible"
       inkscape:isstock="true">
      <path
         inkscape:connector-curvature="0"
         id="path4841-8"
         d="M 0,0 5,-5 -12.5,0 5,5 0,0 Z"
         style="fill:#000000;fill-opacity:1;fill-rule:evenodd;stroke:#000000;stroke-width:1pt;stroke-opacity:1"
         transform="matrix(0.4,0,0,0.4,4,0)" />
    </marker>
    <marker
       inkscape:stockid="Arrow1Mstart"
       orient="auto"
       refY="0"
       refX="0"
       id="Arrow1Mstart-0"
       style="overflow:visible"
       inkscape:isstock="true">
      <path
         inkscape:connector-curvature="0"
         id="path4841-89"
         d="M 0,0 5,-5 -12.5,0 5,5 0,0 Z"
         style="fill:#000000;fill-opacity:1;fill-rule:evenodd;stroke:#000000;stroke-width:1pt;stroke-opacity:1"
         transform="matrix(0.4,0,0,0.4,4,0)" />
    </marker>
    <marker
       inkscape:stockid="Arrow1Mstart"
       orient="auto"
       refY="0"
       refX="0"
       id="Arrow1Mstart-8-6"
       style="overflow:visible"
       inkscape:isstock="true">
      <path
         inkscape:connector-curvature="0"
         id="path4841-6-6"
         d="M 0,0 5,-5 -12.5,0 5,5 0,0 Z"
         style="fill:#000000;fill-opacity:1;fill-rule:evenodd;stroke:#000000;stroke-width:1pt;stroke-opacity:1"
         transform="matrix(0.4,0,0,0.4,4,0)" />
    </marker>
    <marker
       inkscape:stockid="Arrow1Mstart"
       orient="auto"
       refY="0"
       refX="0"
       id="Arrow1Mstart-8-1"
       style="overflow:visible"
       inkscape:isstock="true">
      <path
         inkscape:connector-curvature="0"
         id="path4841-6-5"
         d="M 0,0 5,-5 -12.5,0 5,5 0,0 Z"
         style="fill:#000000;fill-opacity:1;fill-rule:evenodd;stroke:#000000;stroke-width:1pt;stroke-opacity:1"
         transform="matrix(0.4,0,0,0.4,4,0)" />
    </marker>
    <marker
       inkscape:stockid="Arrow1Mstart"
       orient="auto"
       refY="0"
       refX="0"
       id="Arrow1Mstart-8-0"
       style="overflow:visible"
       inkscape:isstock="true">
      <path
         inkscape:connector-curvature="0"
         id="path4841-6-2"
         d="M 0,0 5,-5 -12.5,0 5,5 0,0 Z"
         style="fill:#000000;fill-opacity:1;fill-rule:evenodd;stroke:#000000;stroke-width:1pt;stroke-opacity:1"
         transform="matrix(0.4,0,0,0.4,4,0)" />
    </marker>
  </defs>
  <sodipodi:namedview
     id="base"
     pagecolor="#ffffff"
     bordercolor="#666666"
     borderopacity="1.0"
     inkscape:pageopacity="0.0"
     inkscape:pageshadow="2"
     inkscape:zoom="0.70710678"
     inkscape:cx="476.90716"
     inkscape:cy="217.75318"
     inkscape:document-units="px"
     inkscape:current-layer="layer1"
     showgrid="false"
     inkscape:window-width="1198"
     inkscape:window-height="1128"
     inkscape:window-x="0"
     inkscape:window-y="50"
     inkscape:window-maximized="0"
     fit-margin-top="0"
     fit-margin-left="0"
     fit-margin-right="0"
     fit-margin-bottom="0" />
  <metadata
     id="metadata7">
    <rdf:RDF>
      <cc:Work
         rdf:about="">
        <dc:format>image/svg+xml</dc:format>
        <dc:type
           rdf:resource="http://purl.org/dc/dcmitype/StillImage" />
        <dc:title></dc:title>
      </cc:Work>
    </rdf:RDF>
  </metadata>
  <g
     inkscape:label="Layer 1"
     inkscape:groupmode="layer"
     id="layer1"
     transform="translate(238.75,-480.625)">
    <g
       id="g3316"
       transform="translate(-250.3158,-503.46003)" />
    <text
       xml:space="preserve"
       style="font-style:normal;font-variant:normal;font-weight:normal;font-stretch:normal;font-size:24.87515068px;line-height:1000%;font-family:Padauk;-inkscape-font-specification:Padauk;text-align:center;letter-spacing:0px;word-spacing:0px;text-anchor:middle;fill:#000000;fill-opacity:1;stroke:none"
       x="-92.859177"
       y="888.81079"
       id="text4385"
       sodipodi:linespacing="1000%"
       transform="scale(0.9669376,1.0341929)"><tspan
         sodipodi:role="line"
         id="tspan4387"
         x="-92.859177"
         y="888.81079" /></text>
    <rect
       style="opacity:1;fill:#f0f0a0;fill-opacity:0.39215686;stroke:#000000;stroke-width:1.11396134;stroke-miterlimit:4;stroke-dasharray:none;stroke-opacity:1"
       id="rect4735-0-7-4"
       width="112.59734"
       height="53.200371"
       x="-164.49702"
       y="628.86768" />
    <path
       style="fill:none;fill-rule:evenodd;stroke:#000000;stroke-width:1px;stroke-linecap:butt;stroke-linejoin:miter;stroke-opacity:1;marker-start:url(#Arrow1Mstart-8)"
       d="m -162.2105,705.39418 c 0,59.39697 0,59.39697 0,59.39697 l 0,0 0,0"
       id="path4802-9-0"
       inkscape:connector-curvature="0" />
    <text
       xml:space="preserve"
       style="font-style:normal;font-variant:normal;font-weight:normal;font-stretch:normal;font-size:20px;line-height:89.99999762%;font-family:Padauk;-inkscape-font-specification:Padauk;text-align:center;letter-spacing:0px;word-spacing:0px;text-anchor:middle;fill:#000000;fill-opacity:1;stroke:none;stroke-width:1px;stroke-linecap:butt;stroke-linejoin:miter;stroke-opacity:1"
       x="-158.7547"
       y="792.49701"
       id="text5598-8"
       sodipodi:linespacing="89.999998%"><tspan
         sodipodi:role="line"
         id="tspan5600-2"
         x="-158.7547"
         y="792.49701"
         style="font-size:22.5px">Byte 0</tspan></text>
    <path
       style="fill:none;fill-rule:evenodd;stroke:#000000;stroke-width:1px;stroke-linecap:butt;stroke-linejoin:miter;stroke-opacity:1"
       d="m -48.801733,550.70385 c 0,59.39697 0,59.39697 0,59.39697 l 0,0 0,0"
       id="path4802-98"
       inkscape:connector-curvature="0" />
    <path
       style="fill:none;fill-rule:evenodd;stroke:#000000;stroke-width:1px;stroke-linecap:butt;stroke-linejoin:miter;stroke-opacity:1"
       d="m 65.163778,547.87543 c 0,59.39697 0,59.39697 0,59.39697 l 0,0 0,0"
       id="path4802-98-9"
       inkscape:connector-curvature="0" />
    <path
       style="fill:none;fill-rule:evenodd;stroke:#000000;stroke-width:1px;stroke-linecap:butt;stroke-linejoin:miter;stroke-opacity:1;marker-start:url(#Arrow1Mstart-93)"
       d="m 72.822318,563.33863 c 59.396982,0 59.396982,0 59.396982,0 l 0,0 0,0"
       id="path4802-9-9"
       inkscape:connector-curvature="0" />
    <path
       style="fill:none;fill-rule:evenodd;stroke:#000000;stroke-width:1px;stroke-linecap:butt;stroke-linejoin:miter;stroke-opacity:1;marker-start:url(#Arrow1Mstart-0)"
       d="m -60.574633,561.92441 c -59.396967,0 -59.396967,0 -59.396967,0 l 0,0 0,0"
       id="path4802-9-4"
       inkscape:connector-curvature="0" />
    <text
       xml:space="preserve"
       style="font-style:normal;font-variant:normal;font-weight:normal;font-stretch:normal;font-size:20px;line-height:89.99999762%;font-family:Padauk;-inkscape-font-specification:Padauk;text-align:center;letter-spacing:0px;word-spacing:0px;text-anchor:middle;fill:#000000;fill-opacity:1;stroke:none;stroke-width:1px;stroke-linecap:butt;stroke-linejoin:miter;stroke-opacity:1"
       x="8.656538"
       y="535.35272"
       id="text5598-2"
       sodipodi:linespacing="89.999998%"><tspan
         sodipodi:role="line"
         x="8.656538"
         y="535.35272"
         id="tspan5985"
         style="font-size:22.5px">step size = block size = 512 bytes</tspan></text>
    <path
       style="fill:none;fill-rule:evenodd;stroke:#000000;stroke-width:4;stroke-linecap:butt;stroke-linejoin:miter;stroke-miterlimit:4;stroke-dasharray:none;stroke-opacity:1"
       d="m -161.35303,657.625 c 106.06602,0 106.06602,0 106.06602,0"
       id="path4352"
       inkscape:connector-curvature="0" />
    <path
       style="fill:none;fill-rule:evenodd;stroke:#000000;stroke-width:4;stroke-linecap:butt;stroke-linejoin:miter;stroke-miterlimit:4;stroke-dasharray:none;stroke-opacity:1"
       d="m -46.680409,657.625 c 106.066016,0 106.066016,0 106.066016,0"
       id="path4352-5"
       inkscape:connector-curvature="0" />
    <path
       style="fill:none;fill-rule:evenodd;stroke:#000000;stroke-width:4;stroke-linecap:butt;stroke-linejoin:miter;stroke-miterlimit:4;stroke-dasharray:none;stroke-opacity:1"
       d="m 69.285101,657.625 c 106.066019,0 106.066019,0 106.066019,0"
       id="path4352-4"
       inkscape:connector-curvature="0" />
    <path
       style="fill:none;fill-rule:evenodd;stroke:#000000;stroke-width:4;stroke-linecap:butt;stroke-linejoin:miter;stroke-miterlimit:4;stroke-dasharray:none;stroke-opacity:1"
       d="m 184.42218,657.625 c 106.06602,0 106.06602,0 106.06602,0"
       id="path4352-2"
       inkscape:connector-curvature="0" />
    <rect
       style="opacity:1;fill:#f0f0a0;fill-opacity:0.39215686;stroke:#000000;stroke-width:1.11396134;stroke-miterlimit:4;stroke-dasharray:none;stroke-opacity:1"
       id="rect4735-0-7-4-1"
       width="112.59734"
       height="53.200371"
       x="-49.945717"
       y="628.86768" />
    <rect
       style="opacity:1;fill:#f0f0a0;fill-opacity:0.39215686;stroke:#000000;stroke-width:1.11396134;stroke-miterlimit:4;stroke-dasharray:none;stroke-opacity:1"
       id="rect4735-0-7-4-0"
       width="112.59734"
       height="53.200371"
       x="66.019806"
       y="628.86768" />
    <rect
       style="opacity:1;fill:#f0f0a0;fill-opacity:0.39215686;stroke:#000000;stroke-width:1.11396134;stroke-miterlimit:4;stroke-dasharray:none;stroke-opacity:1"
       id="rect4735-0-7-4-2"
       width="112.59734"
       height="53.200371"
       x="181.39952"
       y="628.86768" />
    <text
       xml:space="preserve"
       style="font-style:normal;font-variant:normal;font-weight:normal;font-stretch:normal;font-size:60px;line-height:89.99999762%;font-family:Padauk;-inkscape-font-specification:Padauk;text-align:center;letter-spacing:0px;word-spacing:0px;text-anchor:middle;fill:#000000;fill-opacity:1;stroke:none;stroke-width:1px;stroke-linecap:butt;stroke-linejoin:miter;stroke-opacity:1"
       x="347.17807"
       y="658.09094"
       id="text4882"
       sodipodi:linespacing="89.999998%"><tspan
         sodipodi:role="line"
         id="tspan4884"
         x="347.17807"
         y="658.09094">...</tspan></text>
    <path
       style="fill:none;fill-rule:evenodd;stroke:#000000;stroke-width:1px;stroke-linecap:butt;stroke-linejoin:miter;stroke-opacity:1;marker-start:url(#Arrow1Mstart-8-6)"
       d="m -49.653709,704.22687 c 0,59.39697 0,59.39697 0,59.39697 l 0,0 0,0"
       id="path4802-9-0-3"
       inkscape:connector-curvature="0" />
    <text
       xml:space="preserve"
       style="font-style:normal;font-variant:normal;font-weight:normal;font-stretch:normal;font-size:20px;line-height:89.99999762%;font-family:Padauk;-inkscape-font-specification:Padauk;text-align:center;letter-spacing:0px;word-spacing:0px;text-anchor:middle;fill:#000000;fill-opacity:1;stroke:none;stroke-width:1px;stroke-linecap:butt;stroke-linejoin:miter;stroke-opacity:1"
       x="-46.197918"
       y="791.32971"
       id="text5598-8-4"
       sodipodi:linespacing="89.999998%"><tspan
         sodipodi:role="line"
         id="tspan5600-2-0"
         x="-46.197918"
         y="791.32971"
         style="font-size:22.5px">Byte 512</tspan></text>
    <path
       style="fill:none;fill-rule:evenodd;stroke:#000000;stroke-width:1px;stroke-linecap:butt;stroke-linejoin:miter;stroke-opacity:1;marker-start:url(#Arrow1Mstart-8-1)"
       d="m 66.311796,702.81266 c 0,59.39697 0,59.39697 0,59.39697 l 0,0 0,0"
       id="path4802-9-0-6"
       inkscape:connector-curvature="0" />
    <text
       xml:space="preserve"
       style="font-style:normal;font-variant:normal;font-weight:normal;font-stretch:normal;font-size:20px;line-height:89.99999762%;font-family:Padauk;-inkscape-font-specification:Padauk;text-align:center;letter-spacing:0px;word-spacing:0px;text-anchor:middle;fill:#000000;fill-opacity:1;stroke:none;stroke-width:1px;stroke-linecap:butt;stroke-linejoin:miter;stroke-opacity:1"
       x="69.767593"
       y="789.91547"
       id="text5598-8-2"
       sodipodi:linespacing="89.999998%"><tspan
         sodipodi:role="line"
         id="tspan5600-2-5"
         x="69.767593"
         y="789.91547"
         style="font-size:22.5px">Byte 1024</tspan></text>
    <path
       style="fill:none;fill-rule:evenodd;stroke:#000000;stroke-width:1px;stroke-linecap:butt;stroke-linejoin:miter;stroke-opacity:1;marker-start:url(#Arrow1Mstart-8-0)"
       d="m 181.54939,699.74159 c 0,59.39697 0,59.39697 0,59.39697 l 0,0 0,0"
       id="path4802-9-0-7"
       inkscape:connector-curvature="0" />
    <text
       xml:space="preserve"
       style="font-style:normal;font-variant:normal;font-weight:normal;font-stretch:normal;font-size:20px;line-height:89.99999762%;font-family:Padauk;-inkscape-font-specification:Padauk;text-align:center;letter-spacing:0px;word-spacing:0px;text-anchor:middle;fill:#000000;fill-opacity:1;stroke:none;stroke-width:1px;stroke-linecap:butt;stroke-linejoin:miter;stroke-opacity:1"
       x="185.00519"
       y="786.84442"
       id="text5598-8-22"
       sodipodi:linespacing="89.999998%"><tspan
         sodipodi:role="line"
         id="tspan5600-2-3"
         x="185.00519"
         y="786.84442"
         style="font-size:22.5px">Byte 1536</tspan></text>
    <path
       inkscape:connector-curvature="0"
       d="m -237.35932,830.97416 649.17109,0 0,-348.59486 -649.17109,0 0,348.59486 z"
       style="fill:none;stroke:#0d0d0d;stroke-width:0.67034066;stroke-linecap:butt;stroke-linejoin:miter;stroke-miterlimit:10;stroke-dasharray:none;stroke-opacity:1"
       id="path4616" />
  </g>
</svg>
