<?xml version="1.0" encoding="UTF-8" standalone="no"?>
<!-- Created with Inkscape (http://www.inkscape.org/) -->

<svg
   xmlns:dc="http://purl.org/dc/elements/1.1/"
   xmlns:cc="http://creativecommons.org/ns#"
   xmlns:rdf="http://www.w3.org/1999/02/22-rdf-syntax-ns#"
   xmlns:svg="http://www.w3.org/2000/svg"
   xmlns="http://www.w3.org/2000/svg"
   xmlns:sodipodi="http://sodipodi.sourceforge.net/DTD/sodipodi-0.dtd"
   xmlns:inkscape="http://www.inkscape.org/namespaces/inkscape"
   width="820"
   height="440"
   id="svg2"
   version="1.1"
   inkscape:version="0.91 r13725"
   sodipodi:docname="forensic_path.svg">
  <defs
     id="defs4">
    <marker
       inkscape:stockid="Arrow1Mstart"
       orient="auto"
       refY="0"
       refX="0"
       id="Arrow1Mstart"
       style="overflow:visible"
       inkscape:isstock="true">
      <path
         id="path4841"
         d="M 0,0 5,-5 -12.5,0 5,5 0,0 Z"
         style="fill:#000000;fill-opacity:1;fill-rule:evenodd;stroke:#000000;stroke-width:1pt;stroke-opacity:1"
         transform="matrix(0.4,0,0,0.4,4,0)"
         inkscape:connector-curvature="0" />
    </marker>
    <clipPath
       id="clipPath4612"
       clipPathUnits="userSpaceOnUse">
      <path
         id="path4614"
         d="M 7.09e-7,1.8311e-4 960,1.8311e-4 960,540.00018 7.09e-7,540.00018 l 0,-539.99999689 z"
         inkscape:connector-curvature="0"
         style="clip-rule:evenodd" />
    </clipPath>
    <clipPath
       id="clipPath4602"
       clipPathUnits="userSpaceOnUse">
      <path
         id="path4604"
         d="M -6.3546e-5,540 960,540 960,1.2207e-4 -6.6323e-5,6.1035e-5"
         inkscape:connector-curvature="0"
         style="clip-rule:evenodd" />
    </clipPath>
    <clipPath
       id="clipPath4592"
       clipPathUnits="userSpaceOnUse">
      <path
         id="path4594"
         d="M -6.3546e-5,540 960,540 960,1.2207e-4 -6.6323e-5,6.1035e-5"
         inkscape:connector-curvature="0"
         style="clip-rule:evenodd" />
    </clipPath>
    <clipPath
       id="clipPath4582"
       clipPathUnits="userSpaceOnUse">
      <path
         id="path4584"
         d="M -5.5651e-5,540 960,540 960,1.8311e-4 -2.7612e-5,1.2207e-4"
         inkscape:connector-curvature="0"
         style="clip-rule:evenodd" />
    </clipPath>
    <clipPath
       id="clipPath4572"
       clipPathUnits="userSpaceOnUse">
      <path
         id="path4574"
         d="M -5.5651e-5,540 960,540 960,1.8311e-4 -2.7612e-5,1.2207e-4"
         inkscape:connector-curvature="0"
         style="clip-rule:evenodd" />
    </clipPath>
    <clipPath
       id="clipPath4562"
       clipPathUnits="userSpaceOnUse">
      <path
         id="path4564"
         d="M -1.0563e-4,540 960,540 960,0 -8.0785e-5,6.1035e-5"
         inkscape:connector-curvature="0"
         style="clip-rule:evenodd" />
    </clipPath>
    <clipPath
       id="clipPath4552"
       clipPathUnits="userSpaceOnUse">
      <path
         id="path4554"
         d="M -1.0563e-4,540 960,540 960,0 -8.0785e-5,6.1035e-5"
         inkscape:connector-curvature="0"
         style="clip-rule:evenodd" />
    </clipPath>
    <clipPath
       id="clipPath4542"
       clipPathUnits="userSpaceOnUse">
      <path
         id="path4544"
         d="M -5.9576e-5,540 960,540 960,0 -1.0386e-4,-6.1035e-5"
         inkscape:connector-curvature="0"
         style="clip-rule:evenodd" />
    </clipPath>
    <clipPath
       id="clipPath4532"
       clipPathUnits="userSpaceOnUse">
      <path
         id="path4534"
         d="M -5.9576e-5,540 960,540 960,0 -1.0386e-4,-6.1035e-5"
         inkscape:connector-curvature="0"
         style="clip-rule:evenodd" />
    </clipPath>
    <clipPath
       id="clipPath4518"
       clipPathUnits="userSpaceOnUse">
      <path
         id="path4520"
         d="M -4.9367e-5,540 960,540 960,1.8311e-4 -5.9369e-5,1.2207e-4"
         inkscape:connector-curvature="0"
         style="clip-rule:evenodd" />
    </clipPath>
    <clipPath
       id="clipPath4508"
       clipPathUnits="userSpaceOnUse">
      <path
         id="path4510"
         d="M -4.9367e-5,540 960,540 960,1.8311e-4 -5.9369e-5,1.2207e-4"
         inkscape:connector-curvature="0"
         style="clip-rule:evenodd" />
    </clipPath>
    <clipPath
       id="clipPath4498"
       clipPathUnits="userSpaceOnUse">
      <path
         id="path4500"
         d="M -6.0031e-5,540 960,540 960,-1.2207e-4 l -960.000026827,0"
         inkscape:connector-curvature="0"
         style="clip-rule:evenodd" />
    </clipPath>
    <clipPath
       id="clipPath4488"
       clipPathUnits="userSpaceOnUse">
      <path
         id="path4490"
         d="M -6.0031e-5,540 960,540 960,-1.2207e-4 l -960.000026827,0"
         inkscape:connector-curvature="0"
         style="clip-rule:evenodd" />
    </clipPath>
    <clipPath
       id="clipPath4478"
       clipPathUnits="userSpaceOnUse">
      <path
         id="path4480"
         d="M 1.376e-5,540 960,540 960,1.2207e-4 l -959.99998624,0"
         inkscape:connector-curvature="0"
         style="clip-rule:evenodd" />
    </clipPath>
    <clipPath
       id="clipPath4468"
       clipPathUnits="userSpaceOnUse">
      <path
         id="path4470"
         d="M 1.376e-5,540 960,540 960,1.2207e-4 l -959.99998624,0"
         inkscape:connector-curvature="0"
         style="clip-rule:evenodd" />
    </clipPath>
    <clipPath
       id="clipPath4458"
       clipPathUnits="userSpaceOnUse">
      <path
         id="path4460"
         d="M 3.8212e-5,540 960,540 960,1.2207e-4 l -959.999961788,0"
         inkscape:connector-curvature="0"
         style="clip-rule:evenodd" />
    </clipPath>
    <clipPath
       id="clipPath4448"
       clipPathUnits="userSpaceOnUse">
      <path
         id="path4450"
         d="M 3.8212e-5,540 960,540 960,1.2207e-4 l -959.999961788,0"
         inkscape:connector-curvature="0"
         style="clip-rule:evenodd" />
    </clipPath>
    <clipPath
       id="clipPath4432"
       clipPathUnits="userSpaceOnUse">
      <path
         id="path4434"
         d="M 1.4305e-5,0 960.00001,0 l 0,540 -959.999995695,0 0,-540 z"
         inkscape:connector-curvature="0"
         style="clip-rule:evenodd" />
    </clipPath>
    <clipPath
       id="clipPath4420"
       clipPathUnits="userSpaceOnUse">
      <path
         id="path4422"
         d="M 1.4305e-5,0 960.00001,0 l 0,540 -959.999995695,0 0,-540 z"
         inkscape:connector-curvature="0"
         style="clip-rule:evenodd" />
    </clipPath>
    <clipPath
       id="clipPath4394"
       clipPathUnits="userSpaceOnUse">
      <path
         id="path4396"
         d="M 1.4305e-5,0 960.00001,0 l 0,540 -959.999995695,0 0,-540 z"
         inkscape:connector-curvature="0"
         style="clip-rule:evenodd" />
    </clipPath>
    <clipPath
       id="clipPath4382"
       clipPathUnits="userSpaceOnUse">
      <path
         id="path4384"
         d="M 1.4305e-5,0 960.00001,0 l 0,540 -959.999995695,0 0,-540 z"
         inkscape:connector-curvature="0"
         style="clip-rule:evenodd" />
    </clipPath>
    <clipPath
       id="clipPath4362"
       clipPathUnits="userSpaceOnUse">
      <path
         id="path4364"
         d="M 1.4305e-5,0 960.00001,0 l 0,540 -959.999995695,0 0,-540 z"
         inkscape:connector-curvature="0"
         style="clip-rule:evenodd" />
    </clipPath>
    <clipPath
       id="clipPath4346"
       clipPathUnits="userSpaceOnUse">
      <path
         id="path4348"
         d="M 1.4305e-5,0 960.00001,0 l 0,540 -959.999995695,0 0,-540 z"
         inkscape:connector-curvature="0"
         style="clip-rule:evenodd" />
    </clipPath>
    <clipPath
       id="clipPath4334"
       clipPathUnits="userSpaceOnUse">
      <path
         id="path4336"
         d="M 1.4305e-5,0 960.00001,0 l 0,540 -959.999995695,0 0,-540 z"
         inkscape:connector-curvature="0"
         style="clip-rule:evenodd" />
    </clipPath>
    <clipPath
       id="clipPath4316"
       clipPathUnits="userSpaceOnUse">
      <path
         id="path4318"
         d="M 1.4305e-5,0 960.00001,0 l 0,540 -959.999995695,0 0,-540 z"
         inkscape:connector-curvature="0"
         style="clip-rule:evenodd" />
    </clipPath>
    <clipPath
       id="clipPath4304"
       clipPathUnits="userSpaceOnUse">
      <path
         id="path4306"
         d="M 1.4305e-5,0 960.00001,0 l 0,540 -959.999995695,0 0,-540 z"
         inkscape:connector-curvature="0"
         style="clip-rule:evenodd" />
    </clipPath>
    <clipPath
       id="clipPath4292"
       clipPathUnits="userSpaceOnUse">
      <path
         id="path4294"
         d="M 1.4305e-5,0 960.00001,0 l 0,540 -959.999995695,0 0,-540 z"
         inkscape:connector-curvature="0"
         style="clip-rule:evenodd" />
    </clipPath>
    <clipPath
       id="clipPath4274"
       clipPathUnits="userSpaceOnUse">
      <path
         id="path4276"
         d="M 1.4305e-5,0 960.00001,0 l 0,540 -959.999995695,0 0,-540 z"
         inkscape:connector-curvature="0"
         style="clip-rule:evenodd" />
    </clipPath>
    <clipPath
       id="clipPath4262"
       clipPathUnits="userSpaceOnUse">
      <path
         id="path4264"
         d="M 1.4305e-5,0 960.00001,0 l 0,540 -959.999995695,0 0,-540 z"
         inkscape:connector-curvature="0"
         style="clip-rule:evenodd" />
    </clipPath>
    <clipPath
       id="clipPath4244"
       clipPathUnits="userSpaceOnUse">
      <path
         id="path4246"
         d="M 1.4305e-5,0 960.00001,0 l 0,540 -959.999995695,0 0,-540 z"
         inkscape:connector-curvature="0"
         style="clip-rule:evenodd" />
    </clipPath>
    <clipPath
       id="clipPath4232"
       clipPathUnits="userSpaceOnUse">
      <path
         id="path4234"
         d="M 1.4305e-5,0 960.00001,0 l 0,540 -959.999995695,0 0,-540 z"
         inkscape:connector-curvature="0"
         style="clip-rule:evenodd" />
    </clipPath>
    <clipPath
       id="clipPath4220"
       clipPathUnits="userSpaceOnUse">
      <path
         id="path4222"
         d="M 1.4305e-5,0 960.00001,0 l 0,540 -959.999995695,0 0,-540 z"
         inkscape:connector-curvature="0"
         style="clip-rule:evenodd" />
    </clipPath>
    <clipPath
       id="clipPath4204"
       clipPathUnits="userSpaceOnUse">
      <path
         id="path4206"
         d="M 1.4305e-5,0 960.00001,0 l 0,540 -959.999995695,0 0,-540 z"
         inkscape:connector-curvature="0"
         style="clip-rule:evenodd" />
    </clipPath>
    <clipPath
       id="clipPath4192"
       clipPathUnits="userSpaceOnUse">
      <path
         id="path4194"
         d="M 1.4305e-5,0 960.00001,0 l 0,540 -959.999995695,0 0,-540 z"
         inkscape:connector-curvature="0"
         style="clip-rule:evenodd" />
    </clipPath>
    <clipPath
       id="clipPath4180"
       clipPathUnits="userSpaceOnUse">
      <path
         id="path4182"
         d="M 1.4305e-5,0 960.00001,0 l 0,540 -959.999995695,0 0,-540 z"
         inkscape:connector-curvature="0"
         style="clip-rule:evenodd" />
    </clipPath>
    <clipPath
       id="clipPath4158"
       clipPathUnits="userSpaceOnUse">
      <path
         id="path4160"
         d="M 1.4305e-5,0 960.00001,0 l 0,540 -959.999995695,0 0,-540 z"
         inkscape:connector-curvature="0"
         style="clip-rule:evenodd" />
    </clipPath>
    <clipPath
       id="clipPath4146"
       clipPathUnits="userSpaceOnUse">
      <path
         id="path4148"
         d="M 1.4305e-5,0 960.00001,0 l 0,540 -959.999995695,0 0,-540 z"
         inkscape:connector-curvature="0"
         style="clip-rule:evenodd" />
    </clipPath>
    <clipPath
       id="clipPath4134"
       clipPathUnits="userSpaceOnUse">
      <path
         id="path4136"
         d="M 1.4305e-5,0 960.00001,0 l 0,540 -959.999995695,0 0,-540 z"
         inkscape:connector-curvature="0"
         style="clip-rule:evenodd" />
    </clipPath>
    <clipPath
       id="clipPath4116"
       clipPathUnits="userSpaceOnUse">
      <path
         id="path4118"
         d="M 1.4305e-5,0 960.00001,0 l 0,540 -959.999995695,0 0,-540 z"
         inkscape:connector-curvature="0"
         style="clip-rule:evenodd" />
    </clipPath>
    <clipPath
       id="clipPath4104"
       clipPathUnits="userSpaceOnUse">
      <path
         id="path4106"
         d="M 1.4305e-5,0 960.00001,0 l 0,540 -959.999995695,0 0,-540 z"
         inkscape:connector-curvature="0"
         style="clip-rule:evenodd" />
    </clipPath>
    <clipPath
       id="clipPath4088"
       clipPathUnits="userSpaceOnUse">
      <path
         id="path4090"
         d="M 1.4305e-5,0 960.00001,0 l 0,540 -959.999995695,0 0,-540 z"
         inkscape:connector-curvature="0"
         style="clip-rule:evenodd" />
    </clipPath>
    <clipPath
       id="clipPath4076"
       clipPathUnits="userSpaceOnUse">
      <path
         id="path4078"
         d="M 1.4305e-5,0 960.00001,0 l 0,540 -959.999995695,0 0,-540 z"
         inkscape:connector-curvature="0"
         style="clip-rule:evenodd" />
    </clipPath>
    <clipPath
       id="clipPath4060"
       clipPathUnits="userSpaceOnUse">
      <path
         id="path4062"
         d="M 1.4305e-5,0 960.00001,0 l 0,540 -959.999995695,0 0,-540 z"
         inkscape:connector-curvature="0"
         style="clip-rule:evenodd" />
    </clipPath>
    <clipPath
       id="clipPath4048"
       clipPathUnits="userSpaceOnUse">
      <path
         id="path4050"
         d="M 1.4305e-5,0 960.00001,0 l 0,540 -959.999995695,0 0,-540 z"
         inkscape:connector-curvature="0"
         style="clip-rule:evenodd" />
    </clipPath>
    <clipPath
       id="clipPath4032"
       clipPathUnits="userSpaceOnUse">
      <path
         id="path4034"
         d="M 1.4305e-5,0 960.00001,0 l 0,540 -959.999995695,0 0,-540 z"
         inkscape:connector-curvature="0"
         style="clip-rule:evenodd" />
    </clipPath>
    <clipPath
       id="clipPath4020"
       clipPathUnits="userSpaceOnUse">
      <path
         id="path4022"
         d="M 1.4305e-5,0 960.00001,0 l 0,540 -959.999995695,0 0,-540 z"
         inkscape:connector-curvature="0"
         style="clip-rule:evenodd" />
    </clipPath>
    <clipPath
       id="clipPath4000"
       clipPathUnits="userSpaceOnUse">
      <path
         id="path4002"
         d="m 0,1.2207e-4 960,0 0,539.99999793 -960,0 L 0,1.2207e-4 Z"
         inkscape:connector-curvature="0"
         style="clip-rule:evenodd" />
    </clipPath>
    <clipPath
       id="clipPath4262-3"
       clipPathUnits="userSpaceOnUse">
      <path
         id="path4264-2"
         d="M 1.4305e-5,0 960.00001,0 l 0,540 -959.999995695,0 0,-540 z"
         inkscape:connector-curvature="0"
         style="clip-rule:evenodd" />
    </clipPath>
    <clipPath
       id="clipPath4274-2"
       clipPathUnits="userSpaceOnUse">
      <path
         id="path4276-2"
         d="M 1.4305e-5,0 960.00001,0 l 0,540 -959.999995695,0 0,-540 z"
         inkscape:connector-curvature="0"
         style="clip-rule:evenodd" />
    </clipPath>
    <clipPath
       id="clipPath4362-4"
       clipPathUnits="userSpaceOnUse">
      <path
         id="path4364-5"
         d="M 1.4305e-5,0 960.00001,0 l 0,540 -959.999995695,0 0,-540 z"
         inkscape:connector-curvature="0"
         style="clip-rule:evenodd" />
    </clipPath>
    <clipPath
       id="clipPath4076-5"
       clipPathUnits="userSpaceOnUse">
      <path
         id="path4078-9"
         d="M 1.4305e-5,0 960.00001,0 l 0,540 -959.999995695,0 0,-540 z"
         inkscape:connector-curvature="0"
         style="clip-rule:evenodd" />
    </clipPath>
    <clipPath
       id="clipPath4088-4"
       clipPathUnits="userSpaceOnUse">
      <path
         id="path4090-2"
         d="M 1.4305e-5,0 960.00001,0 l 0,540 -959.999995695,0 0,-540 z"
         inkscape:connector-curvature="0"
         style="clip-rule:evenodd" />
    </clipPath>
    <clipPath
       id="clipPath4362-4-0"
       clipPathUnits="userSpaceOnUse">
      <path
         id="path4364-5-3"
         d="M 1.4305e-5,0 960.00001,0 l 0,540 -959.999995695,0 0,-540 z"
         inkscape:connector-curvature="0"
         style="clip-rule:evenodd" />
    </clipPath>
    <clipPath
       id="clipPath4076-5-3"
       clipPathUnits="userSpaceOnUse">
      <path
         id="path4078-9-4"
         d="M 1.4305e-5,0 960.00001,0 l 0,540 -959.999995695,0 0,-540 z"
         inkscape:connector-curvature="0"
         style="clip-rule:evenodd" />
    </clipPath>
    <clipPath
       id="clipPath4076-5-4"
       clipPathUnits="userSpaceOnUse">
      <path
         id="path4078-9-43"
         d="M 1.4305e-5,0 960.00001,0 l 0,540 -959.999995695,0 0,-540 z"
         inkscape:connector-curvature="0"
         style="clip-rule:evenodd" />
    </clipPath>
    <clipPath
       id="clipPath4076-5-8"
       clipPathUnits="userSpaceOnUse">
      <path
         id="path4078-9-6"
         d="M 1.4305e-5,0 960.00001,0 l 0,540 -959.999995695,0 0,-540 z"
         inkscape:connector-curvature="0"
         style="clip-rule:evenodd" />
    </clipPath>
    <clipPath
       id="clipPath4304-0"
       clipPathUnits="userSpaceOnUse">
      <path
         id="path4306-7"
         d="M 1.4305e-5,0 960.00001,0 l 0,540 -959.999995695,0 0,-540 z"
         inkscape:connector-curvature="0"
         style="clip-rule:evenodd" />
    </clipPath>
    <clipPath
       id="clipPath4292-6"
       clipPathUnits="userSpaceOnUse">
      <path
         id="path4294-8"
         d="M 1.4305e-5,0 960.00001,0 l 0,540 -959.999995695,0 0,-540 z"
         inkscape:connector-curvature="0"
         style="clip-rule:evenodd" />
    </clipPath>
    <clipPath
       id="clipPath4602-9"
       clipPathUnits="userSpaceOnUse">
      <path
         id="path4604-0"
         d="M -6.3546e-5,540 960,540 960,1.2207e-4 -6.6323e-5,6.1035e-5"
         inkscape:connector-curvature="0"
         style="clip-rule:evenodd" />
    </clipPath>
    <clipPath
       id="clipPath4592-5"
       clipPathUnits="userSpaceOnUse">
      <path
         id="path4594-3"
         d="M -6.3546e-5,540 960,540 960,1.2207e-4 -6.6323e-5,6.1035e-5"
         inkscape:connector-curvature="0"
         style="clip-rule:evenodd" />
    </clipPath>
    <clipPath
       id="clipPath4292-6-4"
       clipPathUnits="userSpaceOnUse">
      <path
         id="path4294-8-1"
         d="M 1.4305e-5,0 960.00001,0 l 0,540 -959.999995695,0 0,-540 z"
         inkscape:connector-curvature="0"
         style="clip-rule:evenodd" />
    </clipPath>
    <clipPath
       id="clipPath4304-0-9"
       clipPathUnits="userSpaceOnUse">
      <path
         id="path4306-7-2"
         d="M 1.4305e-5,0 960.00001,0 l 0,540 -959.999995695,0 0,-540 z"
         inkscape:connector-curvature="0"
         style="clip-rule:evenodd" />
    </clipPath>
    <clipPath
       id="clipPath4292-6-8"
       clipPathUnits="userSpaceOnUse">
      <path
         id="path4294-8-9"
         d="M 1.4305e-5,0 960.00001,0 l 0,540 -959.999995695,0 0,-540 z"
         inkscape:connector-curvature="0"
         style="clip-rule:evenodd" />
    </clipPath>
    <clipPath
       id="clipPath4304-0-5"
       clipPathUnits="userSpaceOnUse">
      <path
         id="path4306-7-6"
         d="M 1.4305e-5,0 960.00001,0 l 0,540 -959.999995695,0 0,-540 z"
         inkscape:connector-curvature="0"
         style="clip-rule:evenodd" />
    </clipPath>
    <clipPath
       id="clipPath4508-7"
       clipPathUnits="userSpaceOnUse">
      <path
         id="path4510-8"
         d="M -4.9367e-5,540 960,540 960,1.8311e-4 -5.9369e-5,1.2207e-4"
         inkscape:connector-curvature="0"
         style="clip-rule:evenodd" />
    </clipPath>
    <clipPath
       id="clipPath4518-4"
       clipPathUnits="userSpaceOnUse">
      <path
         id="path4520-9"
         d="M -4.9367e-5,540 960,540 960,1.8311e-4 -5.9369e-5,1.2207e-4"
         inkscape:connector-curvature="0"
         style="clip-rule:evenodd" />
    </clipPath>
    <clipPath
       id="clipPath4292-6-8-3"
       clipPathUnits="userSpaceOnUse">
      <path
         id="path4294-8-9-0"
         d="M 1.4305e-5,0 960.00001,0 l 0,540 -959.999995695,0 0,-540 z"
         inkscape:connector-curvature="0"
         style="clip-rule:evenodd" />
    </clipPath>
    <clipPath
       id="clipPath4292-6-8-6"
       clipPathUnits="userSpaceOnUse">
      <path
         id="path4294-8-9-3"
         d="M 1.4305e-5,0 960.00001,0 l 0,540 -959.999995695,0 0,-540 z"
         inkscape:connector-curvature="0"
         style="clip-rule:evenodd" />
    </clipPath>
    <clipPath
       id="clipPath4048-6"
       clipPathUnits="userSpaceOnUse">
      <path
         id="path4050-0"
         d="M 1.4305e-5,0 960.00001,0 l 0,540 -959.999995695,0 0,-540 z"
         inkscape:connector-curvature="0"
         style="clip-rule:evenodd" />
    </clipPath>
    <clipPath
       id="clipPath4060-0"
       clipPathUnits="userSpaceOnUse">
      <path
         id="path4062-6"
         d="M 1.4305e-5,0 960.00001,0 l 0,540 -959.999995695,0 0,-540 z"
         inkscape:connector-curvature="0"
         style="clip-rule:evenodd" />
    </clipPath>
    <marker
       inkscape:stockid="Arrow1Mstart"
       orient="auto"
       refY="0"
       refX="0"
       id="Arrow1Mstart-9"
       style="overflow:visible"
       inkscape:isstock="true">
      <path
         inkscape:connector-curvature="0"
         id="path4841-5"
         d="M 0,0 5,-5 -12.5,0 5,5 0,0 Z"
         style="fill:#000000;fill-opacity:1;fill-rule:evenodd;stroke:#000000;stroke-width:1pt;stroke-opacity:1"
         transform="matrix(0.4,0,0,0.4,4,0)" />
    </marker>
    <marker
       inkscape:stockid="Arrow1Mstart"
       orient="auto"
       refY="0"
       refX="0"
       id="Arrow1Mstart-8"
       style="overflow:visible"
       inkscape:isstock="true">
      <path
         inkscape:connector-curvature="0"
         id="path4841-6"
         d="M 0,0 5,-5 -12.5,0 5,5 0,0 Z"
         style="fill:#000000;fill-opacity:1;fill-rule:evenodd;stroke:#000000;stroke-width:1pt;stroke-opacity:1"
         transform="matrix(0.4,0,0,0.4,4,0)" />
    </marker>
    <marker
       inkscape:stockid="Arrow1Mstart"
       orient="auto"
       refY="0"
       refX="0"
       id="Arrow1Mstart-2"
       style="overflow:visible"
       inkscape:isstock="true">
      <path
         inkscape:connector-curvature="0"
         id="path4841-4"
         d="M 0,0 5,-5 -12.5,0 5,5 0,0 Z"
         style="fill:#000000;fill-opacity:1;fill-rule:evenodd;stroke:#000000;stroke-width:1pt;stroke-opacity:1"
         transform="matrix(0.4,0,0,0.4,4,0)" />
    </marker>
    <clipPath
       id="clipPath4508-6"
       clipPathUnits="userSpaceOnUse">
      <path
         style="clip-rule:evenodd"
         id="path4510-5"
         d="M -4.9367e-5,540 960,540 960,1.8311e-4 -5.9369e-5,1.2207e-4"
         inkscape:connector-curvature="0" />
    </clipPath>
    <clipPath
       id="clipPath4518-41"
       clipPathUnits="userSpaceOnUse">
      <path
         style="clip-rule:evenodd"
         id="path4520-94"
         d="M -4.9367e-5,540 960,540 960,1.8311e-4 -5.9369e-5,1.2207e-4"
         inkscape:connector-curvature="0" />
    </clipPath>
    <marker
       inkscape:stockid="Arrow1Mstart"
       orient="auto"
       refY="0"
       refX="0"
       id="Arrow1Mstart-93"
       style="overflow:visible"
       inkscape:isstock="true">
      <path
         inkscape:connector-curvature="0"
         id="path4841-8"
         d="M 0,0 5,-5 -12.5,0 5,5 0,0 Z"
         style="fill:#000000;fill-opacity:1;fill-rule:evenodd;stroke:#000000;stroke-width:1pt;stroke-opacity:1"
         transform="matrix(0.4,0,0,0.4,4,0)" />
    </marker>
    <marker
       inkscape:stockid="Arrow1Mstart"
       orient="auto"
       refY="0"
       refX="0"
       id="Arrow1Mstart-0"
       style="overflow:visible"
       inkscape:isstock="true">
      <path
         inkscape:connector-curvature="0"
         id="path4841-89"
         d="M 0,0 5,-5 -12.5,0 5,5 0,0 Z"
         style="fill:#000000;fill-opacity:1;fill-rule:evenodd;stroke:#000000;stroke-width:1pt;stroke-opacity:1"
         transform="matrix(0.4,0,0,0.4,4,0)" />
    </marker>
    <marker
       inkscape:stockid="Arrow1Mstart"
       orient="auto"
       refY="0"
       refX="0"
       id="Arrow1Mstart-0-8"
       style="overflow:visible"
       inkscape:isstock="true">
      <path
         inkscape:connector-curvature="0"
         id="path4841-89-2"
         d="M 0,0 5,-5 -12.5,0 5,5 0,0 Z"
         style="fill:#000000;fill-opacity:1;fill-rule:evenodd;stroke:#000000;stroke-width:1pt;stroke-opacity:1"
         transform="matrix(0.4,0,0,0.4,4,0)" />
    </marker>
    <marker
       inkscape:stockid="Arrow1Mstart"
       orient="auto"
       refY="0"
       refX="0"
       id="Arrow1Mstart-2-0"
       style="overflow:visible"
       inkscape:isstock="true">
      <path
         inkscape:connector-curvature="0"
         id="path4841-4-8"
         d="M 0,0 5,-5 -12.5,0 5,5 0,0 Z"
         style="fill:#000000;fill-opacity:1;fill-rule:evenodd;stroke:#000000;stroke-width:1pt;stroke-opacity:1"
         transform="matrix(0.4,0,0,0.4,4,0)" />
    </marker>
    <marker
       inkscape:stockid="Arrow1Mstart"
       orient="auto"
       refY="0"
       refX="0"
       id="Arrow1Mstart-93-5"
       style="overflow:visible"
       inkscape:isstock="true">
      <path
         inkscape:connector-curvature="0"
         id="path4841-8-8"
         d="M 0,0 5,-5 -12.5,0 5,5 0,0 Z"
         style="fill:#000000;fill-opacity:1;fill-rule:evenodd;stroke:#000000;stroke-width:1pt;stroke-opacity:1"
         transform="matrix(0.4,0,0,0.4,4,0)" />
    </marker>
  </defs>
  <sodipodi:namedview
     id="base"
     pagecolor="#ffffff"
     bordercolor="#666666"
     borderopacity="1.0"
     inkscape:pageopacity="0.0"
     inkscape:pageshadow="2"
     inkscape:zoom="0.70710678"
     inkscape:cx="688.27862"
     inkscape:cy="104.61609"
     inkscape:document-units="px"
     inkscape:current-layer="layer1"
     showgrid="false"
     inkscape:window-width="1198"
     inkscape:window-height="1128"
     inkscape:window-x="0"
     inkscape:window-y="50"
     inkscape:window-maximized="0"
     fit-margin-top="0"
     fit-margin-left="0"
     fit-margin-right="0"
     fit-margin-bottom="0" />
  <metadata
     id="metadata7">
    <rdf:RDF>
      <cc:Work
         rdf:about="">
        <dc:format>image/svg+xml</dc:format>
        <dc:type
           rdf:resource="http://purl.org/dc/dcmitype/StillImage" />
        <dc:title />
      </cc:Work>
    </rdf:RDF>
  </metadata>
  <g
     inkscape:label="Layer 1"
     inkscape:groupmode="layer"
     id="layer1"
     transform="translate(238.75,-390.625)">
    <g
       id="g3316"
       transform="translate(-250.3158,-503.46003)" />
    <text
       xml:space="preserve"
       style="font-style:normal;font-variant:normal;font-weight:normal;font-stretch:normal;font-size:24.87515068px;line-height:1000%;font-family:Padauk;-inkscape-font-specification:Padauk;text-align:center;letter-spacing:0px;word-spacing:0px;text-anchor:middle;fill:#000000;fill-opacity:1;stroke:none"
       x="-92.859177"
       y="888.81079"
       id="text4385"
       sodipodi:linespacing="1000%"
       transform="scale(0.9669376,1.0341929)"><tspan
         sodipodi:role="line"
         id="tspan4387"
         x="-92.859177"
         y="888.81079" /></text>
    <rect
       style="opacity:1;fill:#f0f0a0;fill-opacity:0.39215686;stroke:#000000;stroke-width:2.45792007;stroke-miterlimit:4;stroke-dasharray:none;stroke-opacity:1"
       id="rect4735-0-7"
       width="562.38751"
       height="51.856411"
       x="-49.617237"
       y="539.35156" />
    <rect
       style="opacity:1;fill:#f0f0a0;fill-opacity:0.39215686;stroke:#000000;stroke-width:1.94675732;stroke-miterlimit:4;stroke-dasharray:none;stroke-opacity:1"
       id="rect4735-0-7-6"
       width="349.35242"
       height="52.367573"
       x="44.051064"
       y="731.8728" />
    <path
       style="fill:none;fill-rule:evenodd;stroke:#000000;stroke-width:1px;stroke-linecap:butt;stroke-linejoin:miter;stroke-opacity:1;marker-start:url(#Arrow1Mstart-2)"
       d="m 69.343638,718.63375 c 42.816672,-41.16714 42.816672,-41.16714 42.816672,-41.16714 l 0,0 0,0"
       id="path4802-9-5"
       inkscape:connector-curvature="0" />
    <path
       style="fill:none;fill-rule:evenodd;stroke:#000000;stroke-width:0.78126091px;stroke-linecap:butt;stroke-linejoin:miter;stroke-opacity:1;marker-start:url(#Arrow1Mstart-93)"
       d="m 130.58682,717.75652 c 0,-36.25405 0,-36.25405 0,-36.25405 l 0,0 0,0"
       id="path4802-9-9"
       inkscape:connector-curvature="0" />
    <path
       style="fill:none;fill-rule:evenodd;stroke:#000000;stroke-width:1px;stroke-linecap:butt;stroke-linejoin:miter;stroke-opacity:1;marker-start:url(#Arrow1Mstart-0)"
       d="m 69.775656,528.72004 c 0,-59.39696 0,-59.39696 0,-59.39696 l 0,0 0,0"
       id="path4802-9-4"
       inkscape:connector-curvature="0" />
    <text
       xml:space="preserve"
       style="font-style:normal;font-variant:normal;font-weight:normal;font-stretch:normal;font-size:20px;line-height:89.99999762%;font-family:Padauk;-inkscape-font-specification:Padauk;text-align:center;letter-spacing:0px;word-spacing:0px;text-anchor:middle;fill:#000000;fill-opacity:1;stroke:none;stroke-width:1px;stroke-linecap:butt;stroke-linejoin:miter;stroke-opacity:1"
       x="-131.10794"
       y="562.64929"
       id="text5598-2"
       sodipodi:linespacing="89.999998%"><tspan
         sodipodi:role="line"
         id="tspan5600-5"
         x="-131.10794"
         y="562.64929"
         style="font-size:22.5px">File &quot;myfile&quot;</tspan><tspan
         sodipodi:role="line"
         x="-131.10794"
         y="582.89929"
         style="font-size:22.5px"
         id="tspan3663">MD5=a0f9...</tspan></text>
    <text
       xml:space="preserve"
       style="font-style:normal;font-variant:normal;font-weight:normal;font-stretch:normal;font-size:40px;line-height:89.99999762%;font-family:Padauk;-inkscape-font-specification:Padauk;text-align:center;letter-spacing:0px;word-spacing:0px;text-anchor:middle;fill:#000000;fill-opacity:1;stroke:none;stroke-width:1px;stroke-linecap:butt;stroke-linejoin:miter;stroke-opacity:1"
       x="231.21254"
       y="575.76508"
       id="text9018"
       sodipodi:linespacing="89.999998%"><tspan
         sodipodi:role="line"
         id="tspan9020"
         x="231.21254"
         y="575.76508">-----------------------------</tspan></text>
    <path
       inkscape:connector-curvature="0"
       d="m -237.27011,833.71337 818.69828,0 0,-443.16872 -818.69828,0 0,443.16872 z"
       style="fill:none;stroke:#0d0d0d;stroke-width:0.84879333;stroke-linecap:butt;stroke-linejoin:miter;stroke-miterlimit:10;stroke-dasharray:none;stroke-opacity:1"
       id="path4616" />
    <path
       style="fill:none;fill-rule:evenodd;stroke:#000000;stroke-width:1px;stroke-linecap:butt;stroke-linejoin:miter;stroke-opacity:1;marker-start:url(#Arrow1Mstart-0-8)"
       d="m 183.37193,528.72004 c 0,-59.39696 0,-59.39696 0,-59.39696 l 0,0 0,0"
       id="path4802-9-4-2"
       inkscape:connector-curvature="0" />
    <text
       xml:space="preserve"
       style="font-style:normal;font-variant:normal;font-weight:normal;font-stretch:normal;font-size:20px;line-height:89.99999762%;font-family:Padauk;-inkscape-font-specification:Padauk;text-align:center;letter-spacing:0px;word-spacing:0px;text-anchor:middle;fill:#000000;fill-opacity:1;stroke:none;stroke-width:1px;stroke-linecap:butt;stroke-linejoin:miter;stroke-opacity:1"
       x="69.835205"
       y="441.07245"
       id="text5598-2-6"
       sodipodi:linespacing="89.999998%"><tspan
         sodipodi:role="line"
         id="tspan5600-5-8"
         x="69.835205"
         y="441.07245"
         style="font-size:22.5px">Byte</tspan><tspan
         sodipodi:role="line"
         x="69.835205"
         y="461.32245"
         style="font-size:22.5px"
         id="tspan3556">1000</tspan></text>
    <text
       xml:space="preserve"
       style="font-style:normal;font-variant:normal;font-weight:normal;font-stretch:normal;font-size:20px;line-height:89.99999762%;font-family:Padauk;-inkscape-font-specification:Padauk;text-align:center;letter-spacing:0px;word-spacing:0px;text-anchor:middle;fill:#000000;fill-opacity:1;stroke:none;stroke-width:1px;stroke-linecap:butt;stroke-linejoin:miter;stroke-opacity:1"
       x="184.06105"
       y="441.07245"
       id="text5598-2-6-9"
       sodipodi:linespacing="89.999998%"><tspan
         sodipodi:role="line"
         id="tspan5600-5-8-3"
         x="184.06105"
         y="441.07245"
         style="font-size:22.5px">Byte</tspan><tspan
         sodipodi:role="line"
         x="184.06105"
         y="461.32245"
         style="font-size:22.5px"
         id="tspan3556-4">2000</tspan></text>
    <text
       xml:space="preserve"
       style="font-style:normal;font-variant:normal;font-weight:normal;font-stretch:normal;font-size:60px;line-height:89.99999762%;font-family:Padauk;-inkscape-font-specification:Padauk;text-align:center;letter-spacing:0px;word-spacing:0px;text-anchor:middle;fill:#000000;fill-opacity:1;stroke:none;stroke-width:1px;stroke-linecap:butt;stroke-linejoin:miter;stroke-opacity:1"
       x="-613.37616"
       y="144.63977"
       id="text3579"
       sodipodi:linespacing="89.999998%"
       transform="matrix(0,-1,1,0,0,0)"><tspan
         sodipodi:role="line"
         id="tspan3581"
         x="-613.37616"
         y="144.63977"
         style="font-size:80px">{</tspan></text>
    <text
       xml:space="preserve"
       style="font-style:normal;font-variant:normal;font-weight:normal;font-stretch:normal;font-size:20px;line-height:89.99999762%;font-family:Padauk;-inkscape-font-specification:Padauk;text-align:center;letter-spacing:0px;word-spacing:0px;text-anchor:middle;fill:#000000;fill-opacity:1;stroke:none;stroke-width:1px;stroke-linecap:butt;stroke-linejoin:miter;stroke-opacity:1"
       x="129.44507"
       y="658.87201"
       id="text5598-1-8"
       sodipodi:linespacing="89.999998%"><tspan
         sodipodi:role="line"
         x="129.44507"
         y="658.87201"
         id="tspan7802-8"
         style="font-size:22.5px">zip</tspan></text>
    <path
       style="fill:none;fill-rule:evenodd;stroke:#000000;stroke-width:1px;stroke-linecap:butt;stroke-linejoin:miter;stroke-opacity:1;marker-start:url(#Arrow1Mstart-2-0)"
       d="m 191.81531,721.07015 c -41.16714,-42.81667 -41.16714,-42.81667 -41.16714,-42.81667 l 0,0 0,0"
       id="path4802-9-5-2"
       inkscape:connector-curvature="0" />
    <text
       xml:space="preserve"
       style="font-style:normal;font-variant:normal;font-weight:normal;font-stretch:normal;font-size:40px;line-height:89.99999762%;font-family:Padauk;-inkscape-font-specification:Padauk;text-align:center;letter-spacing:0px;word-spacing:0px;text-anchor:middle;fill:#000000;fill-opacity:1;stroke:none;stroke-width:1px;stroke-linecap:butt;stroke-linejoin:miter;stroke-opacity:1"
       x="218.76633"
       y="765.29462"
       id="text9018-8"
       sodipodi:linespacing="89.999998%"><tspan
         sodipodi:role="line"
         id="tspan9020-3"
         x="218.76633"
         y="765.29462">------------------</tspan></text>
    <text
       xml:space="preserve"
       style="font-style:normal;font-variant:normal;font-weight:normal;font-stretch:normal;font-size:20px;line-height:89.99999762%;font-family:Padauk;-inkscape-font-specification:Padauk;text-align:center;letter-spacing:0px;word-spacing:0px;text-anchor:middle;fill:#000000;fill-opacity:1;stroke:none;stroke-width:1px;stroke-linecap:butt;stroke-linejoin:miter;stroke-opacity:1"
       x="-81.173889"
       y="754.72375"
       id="text5598-2-9"
       sodipodi:linespacing="89.999998%"><tspan
         sodipodi:role="line"
         id="tspan5600-5-0"
         x="-81.173889"
         y="754.72375"
         style="font-size:22.5px">File &quot;myfile-1000-zip&quot;</tspan><tspan
         sodipodi:role="line"
         x="-81.173889"
         y="774.97375"
         style="font-size:22.5px"
         id="tspan3665">MD5=b362...</tspan></text>
    <path
       style="fill:none;fill-rule:evenodd;stroke:#000000;stroke-width:0.78126091px;stroke-linecap:butt;stroke-linejoin:miter;stroke-opacity:1;marker-start:url(#Arrow1Mstart-93-5)"
       d="m 316.8938,721.99308 c 0,-36.25405 0,-36.25405 0,-36.25405 l 0,0 0,0"
       id="path4802-9-9-7"
       inkscape:connector-curvature="0" />
    <text
       xml:space="preserve"
       style="font-style:normal;font-variant:normal;font-weight:normal;font-stretch:normal;font-size:22.5px;line-height:89.99999762%;font-family:Padauk;-inkscape-font-specification:'Padauk, Normal';text-align:start;letter-spacing:0px;word-spacing:0px;writing-mode:lr-tb;text-anchor:start;fill:#000000;fill-opacity:1;stroke:none;stroke-width:1px;stroke-linecap:butt;stroke-linejoin:miter;stroke-opacity:1"
       x="246.25934"
       y="657.26111"
       id="text5598-2-6-9-2"
       sodipodi:linespacing="89.999998%"><tspan
         sodipodi:role="line"
         id="tspan5600-5-8-3-7"
         x="246.25934"
         y="657.26111"
         style="font-style:normal;font-variant:normal;font-weight:normal;font-stretch:normal;font-size:22.5px;line-height:89.99999762%;font-family:Padauk;-inkscape-font-specification:'Padauk, Normal';text-align:start;writing-mode:lr-tb;text-anchor:start">Byte 2100</tspan><tspan
         sodipodi:role="line"
         x="246.25934"
         y="677.51111"
         style="font-style:normal;font-variant:normal;font-weight:normal;font-stretch:normal;font-size:22.5px;line-height:89.99999762%;font-family:Padauk;-inkscape-font-specification:'Padauk, Normal';text-align:start;writing-mode:lr-tb;text-anchor:start"
         id="tspan4611">Forensic path &quot;1000-zip-2100&quot;</tspan><tspan
         sodipodi:role="line"
         x="246.25934"
         y="697.76111"
         style="font-style:normal;font-variant:normal;font-weight:normal;font-stretch:normal;font-size:22.5px;line-height:89.99999762%;font-family:Padauk;-inkscape-font-specification:'Padauk, Normal';text-align:start;writing-mode:lr-tb;text-anchor:start"
         id="tspan3556-4-9" /></text>
  </g>
</svg>
