<?xml version="1.0" encoding="UTF-8" standalone="no"?>
<!-- Created with Inkscape (http://www.inkscape.org/) -->

<svg
   xmlns:dc="http://purl.org/dc/elements/1.1/"
   xmlns:cc="http://creativecommons.org/ns#"
   xmlns:rdf="http://www.w3.org/1999/02/22-rdf-syntax-ns#"
   xmlns:svg="http://www.w3.org/2000/svg"
   xmlns="http://www.w3.org/2000/svg"
   xmlns:sodipodi="http://sodipodi.sourceforge.net/DTD/sodipodi-0.dtd"
   xmlns:inkscape="http://www.inkscape.org/namespaces/inkscape"
   id="svg3349"
   version="1.1"
   inkscape:version="0.48.5 r10040"
   width="308.94398"
   height="55.218935"
   xml:space="preserve"
   sodipodi:docname="sector_boundaries.pdf"><metadata
     id="metadata3355"><rdf:RDF><cc:Work
         rdf:about=""><dc:format>image/svg+xml</dc:format><dc:type
           rdf:resource="http://purl.org/dc/dcmitype/StillImage" /><dc:title></dc:title></cc:Work></rdf:RDF></metadata><defs
     id="defs3353" /><sodipodi:namedview
     pagecolor="#ffffff"
     bordercolor="#666666"
     borderopacity="1"
     objecttolerance="10"
     gridtolerance="10"
     guidetolerance="10"
     inkscape:pageopacity="0"
     inkscape:pageshadow="2"
     inkscape:window-width="640"
     inkscape:window-height="480"
     id="namedview3351"
     showgrid="false"
     inkscape:zoom="1.1069968"
     inkscape:cx="154.47198"
     inkscape:cy="27.609467"
     inkscape:window-x="0"
     inkscape:window-y="23"
     inkscape:window-maximized="0"
     inkscape:current-layer="g3359" /><g
     id="g3357"
     inkscape:groupmode="layer"
     inkscape:label="sector_boundaries"
     transform="matrix(1.25,0,0,-1.25,0,55.218935)"><g
       id="g3359"><text
         transform="matrix(1,0,0,-1,-1.560449,39.284523)"
         id="text3361"><tspan
           style="fill:#000000;fill-opacity:1;fill-rule:nonzero;stroke:none;font-family:DejaVu Sans Mono;font-variant:normal;font-weight:normal;font-size:6.4;writing-mode:lr;-inkscape-font-specification:DejaVuSansMono"
           x="0 3.8528 7.7056 11.5584 15.4112 19.264 23.0976 26.9504 30.8032 34.656 38.5088 42.3616 46.1952 50.048 53.9008 57.7536 61.6064 65.4592 69.2928 73.1456 76.9984 80.8512 84.704 88.5568 92.3904 96.2432 100.096 103.9488 107.8016 111.6544 115.488 119.3408 123.1936 127.0464 130.8992 134.752 138.5856 142.4384 146.2912 150.144 153.9968 157.8496 161.6832 165.536 169.3888 173.2416 177.0944 180.9472 184.8 188.6336 192.4864 196.3392 200.192 204.0448 207.8976 211.7312 215.584 219.4368 223.2896 227.1424 230.9952 234.8288 238.6816 242.5344 246.3872"
           y="0"
           sodipodi:role="line"
           id="tspan3363">|-512-|-512-|-512-|-512-|-512-|-512-|-512-|-512-|-512-|-512-| ...</tspan><tspan
           style="fill:#000000;fill-opacity:1;fill-rule:nonzero;stroke:none;font-family:DejaVu Sans Mono;font-variant:normal;font-weight:normal;font-size:6.4;writing-mode:lr;-inkscape-font-specification:DejaVuSansMono"
           x="-0.09580096 3.75699904 7.60979904 11.46259904 15.31539904 19.16819904 23.00179904 26.85459904 30.70739904 34.56019904 38.41299904 42.26579904 46.09939904 49.95219904 53.80499904 57.65779904 61.51059904 65.36339904 69.19699904 73.04979904 76.90259904 80.75539904 84.60819904 88.46099904 92.29459904 96.14739904 100.00019904 103.85299904 107.70579904 111.55859904 115.39219904 119.24499904 123.09779904 126.95059904 130.80339904 134.65619904 138.48979904 142.34259904 146.19539904 150.04819904 153.90099904 157.75379904 161.58739904 165.44019904 169.29299904 173.14579904 176.99859904 180.85139904 184.70419904"
           y="12.047462"
           sodipodi:role="line"
           id="tspan3365">|-----------------------4K----------------------|</tspan><tspan
           style="fill:#000000;fill-opacity:1;fill-rule:nonzero;stroke:none;font-family:DejaVu Sans Mono;font-variant:normal;font-weight:normal;font-size:6.4;writing-mode:lr;-inkscape-font-specification:DejaVuSansMono"
           x="22.35283264 26.20563264 30.05843264 33.91123264 37.76403264 41.61683264 45.45043264 49.30323264 53.15603264 57.00883264 60.86163264 64.71443264 68.54803264 72.40083264 76.25363264 80.10643264 83.95923264 87.81203264 91.64563264 95.49843264 99.35123264 103.20403264 107.05683264 110.90963264 114.74323264 118.59603264 122.44883264 126.30163264 130.15443264 134.00723264 137.84083264 141.69363264 145.54643264 149.39923264 153.25203264 157.10483264 160.93843264 164.79123264 168.64403264 172.49683264 176.34963264 180.20243264 184.03603264 187.88883264 191.74163264 195.59443264 199.44723264 203.30003264 207.15283264"
           y="20.203027"
           sodipodi:role="line"
           id="tspan3367">|-----------------------4K----------------------|</tspan><tspan
           style="fill:#000000;fill-opacity:1;fill-rule:nonzero;stroke:none;font-family:DejaVu Sans Mono;font-variant:normal;font-weight:normal;font-size:6.4;writing-mode:lr;-inkscape-font-specification:DejaVuSansMono"
           x="46.19249344 50.04529344 53.89809344 57.75089344 61.60369344 65.45649344 69.29009344 73.14289344 76.99569344 80.84849344 84.70129344 88.55409344 92.38769344 96.24049344 100.09329344 103.94609344 107.79889344 111.65169344 115.48529344 119.33809344 123.19089344 127.04369344 130.89649344 134.74929344 138.58289344 142.43569344 146.28849344 150.14129344 153.99409344 157.84689344 161.68049344 165.53329344 169.38609344 173.23889344 177.09169344 180.94449344 184.77809344 188.63089344 192.48369344 196.33649344 200.18929344 204.04209344 207.87569344 211.72849344 215.58129344 219.43409344 223.28689344 227.13969344 230.99249344"
           y="29.092384"
           sodipodi:role="line"
           id="tspan3369">|-----------------------4K----------------------|</tspan><tspan
           style="fill:#000000;fill-opacity:1;fill-rule:nonzero;stroke:none;font-family:DejaVu Sans Mono;font-variant:normal;font-weight:normal;font-size:6.4;writing-mode:lr;-inkscape-font-specification:DejaVuSansMono"
           x="160.54170944 164.39450944 168.24730944 172.10010944"
           y="39.193901"
           sodipodi:role="line"
           id="tspan3371">etc.</tspan></text>
</g></g></svg>